# xmcd
#
# Track frame offsets:
#	150
#	15606
#	33389
#	53972
#	73285
#	91358
#	108420
#	127527
#	143073
#	160419
#	177338
#	200064
#	219416
#	237248
#	257243
#	273802
#	292347
#	310867
#	325033
#
# Disc length: 4622 seconds
#
# Revision: 0
# Processed by: cddbd v1.5.2PL0 Copyright (c) Steve Scherf et al.
# Submitted via: audiograbber 1.83.01
#
DISCID=1b120c13
DTITLE=Sampler - Body and Soul - Songs voller Sinnlichkeit [CD 2)
DYEAR=2001
DGENRE=RnB
TTITLE0=INESSA and DANTE THOMAS - GUILTY (Original Radio Version)
TTITLE1=DESTINY'S CHILD - EMOTION (Album Version)
TTITLE2=SADE - BY YOUR SIDE (Album Version)
TTITLE3=SARAH CONNOR - FROM SARAH WITH LOVE (Urban Remix)
TTITLE4=LINDA CARRIERE - JUST FRIENDS (Director's Cut)
TTITLE5=AYMAN FEAT. KEITH SWEAT - DIESER BRIEF (Englische Version)
TTITLE6=JON SECADA - YOU SHOULD BE MINE (Album Version)
TTITLE7=LUTHER VANDROSS - TAKE YOU OUT (Album Version)
TTITLE8=JOE - STUTTER (Album Version)
TTITLE9=JAHEIM - COULD IT BE (Album Version)
TTITLE10=R. KELLY - A WOMAN'S THREAT (Radio Edit)
TTITLE11=JILL SCOTT - THE WAY (Album Version)
TTITLE12=MACY GRAY - I TRY (Album Version)
TTITLE13=ALL SAINTS - PURE SHORES (5" Version)
TTITLE14=MELANIE THORNTON - FOREVER (Album Version)
TTITLE15=DES'REE - WHAT'S YOUR SIGN? (Album Version)
TTITLE16=WYCLEF JEAN - WISH YOU WERE HERE (Album Version)
TTITLE17=HIL ST SOUL - UNTIL YOU COME BACK TO ME (Acoustic Version)
TTITLE18=GEORGE MICHAEL - WAITING FOR THAT DAY (Album Version)
EXTD=YEAR: 2001
EXTT0=
EXTT1=
EXTT2=
EXTT3=
EXTT4=
EXTT5=
EXTT6=
EXTT7=
EXTT8=
EXTT9=
EXTT10=
EXTT11=
EXTT12=
EXTT13=
EXTT14=
EXTT15=
EXTT16=
EXTT17=
EXTT18=
PLAYORDER=
